<svg height="95" width="100" xmlns="http://www.w3.org/2000/svg"><path d="M91.555 38.604H8.357C3.78 38.604.07 42.318.07 46.898v2.794c0 3.643 2.332 6.72 5.671 7.816l8.286 29.02c.053.159.106.318.195.46 3.25 6.543 6.943 7.073 10.76 7.073h49.929c3.816 0 7.508-.548 10.777-7.073.07-.16.141-.319.177-.478l8.304-29.02a8.159 8.159 0 005.671-7.816v-2.776c0-4.562-3.728-8.294-8.286-8.294M73.94 82.354H25.37c-1.29 0-2.35-1.043-2.35-2.334s1.06-2.352 2.35-2.352h48.57c1.29 0 2.35 1.061 2.35 2.352a2.358 2.358 0 01-2.35 2.334m3.233-12.661H23.04a2.35 2.35 0 01-2.35-2.352 2.347 2.347 0 012.35-2.335h54.134c1.29 0 2.35 1.061 2.35 2.335a2.35 2.35 0 01-2.35 2.352m2.385-12.68H21.237a2.361 2.361 0 01-2.35-2.352c0-1.29 1.06-2.352 2.35-2.352h58.321a2.35 2.35 0 012.35 2.352 2.35 2.35 0 01-2.35 2.352m-51.943-24.74L48.02 11.318c.6.212 1.237.353 1.926.353.724 0 1.396-.141 2.032-.389L72.26 32.256a2.945 2.945 0 004.17.07 2.959 2.959 0 00.07-4.173L55.69 6.632c.035-.248.07-.513.07-.76 0-3.22-2.596-5.819-5.812-5.819s-5.813 2.6-5.813 5.818c0 .318.036.619.089.92l-20.83 21.362a2.959 2.959 0 00.052 4.173 2.936 2.936 0 004.17-.053"/></svg>