<svg height="44" width="46" xmlns="http://www.w3.org/2000/svg"><path d="M42.264 40.276H3.736V30.011h38.528zM10.809 16.97H35.19v10.264H10.809zm32.842 10.263h-5.685V15.581c0-.768-.621-1.389-1.386-1.389h-6.073v-5.02a1.389 1.389 0 10-2.776 0v5.02h-3.345v-5.02a1.389 1.389 0 10-2.776 0v5.02h-3.346v-5.02a1.39 1.39 0 00-2.778 0v5.02H9.415c-.765 0-1.388.621-1.388 1.389v11.652H2.348a1.39 1.39 0 00-1.39 1.39v13.044c0 .766.623 1.387 1.39 1.387h41.304a1.39 1.39 0 001.391-1.387V28.623a1.393 1.393 0 00-1.392-1.39zM16.879 6.774s3.156-1.768 0-5.936c-3.282 4.549 0 5.936 0 5.936m6.148 0s3.157-1.768 0-5.936c-3.283 4.549 0 5.936 0 5.936m6.15 0s3.157-1.768 0-5.936c-3.283 4.549 0 5.936 0 5.936"/></svg>