<svg height="60" width="66" xmlns="http://www.w3.org/2000/svg"><path d="M.059 45.454c0 1.143.93 2.063 2.059 2.063H16.54v10.326a2.064 2.064 0 002.059 2.063c.482 0 .965-.165 1.341-.495l13.847-11.894H63.94c1.141 0 2.059-.92 2.059-2.063V2.098A2.056 2.056 0 0063.941.035H2.118C.976.035.058.955.058 2.098zM4.176 4.16h57.706v39.23H33.024c-.495 0-.965.177-1.342.495L20.66 53.352v-7.898a2.056 2.056 0 00-2.06-2.064H4.176z"/><path d="M18.447 17.776h-1.941a.392.392 0 00-.388.389v3.866h-4.46v-3.866a.392.392 0 00-.387-.389H9.329a.392.392 0 00-.388.389v10.904c0 .212.177.389.388.389h1.953a.392.392 0 00.389-.39v-4.49h4.447v4.49c0 .213.176.39.388.39h1.941a.392.392 0 00.388-.39V18.166a.392.392 0 00-.388-.389m9.471 9.135h-4.706v-2.228h4.282a.392.392 0 00.388-.39v-1.767a.392.392 0 00-.388-.39h-4.282v-1.815H27.8a.392.392 0 00.388-.389v-1.768a.392.392 0 00-.388-.389h-6.93a.392.392 0 00-.388.389v10.916c0 .212.177.389.389.389h7.047a.392.392 0 00.388-.39v-1.768c0-.224-.177-.4-.388-.4m8.258 0h-3.94v-8.747a.392.392 0 00-.389-.389h-1.953a.392.392 0 00-.388.389v10.916c0 .212.176.389.388.389h6.282a.392.392 0 00.389-.39v-1.768a.38.38 0 00-.389-.4m7.989 0h-3.941v-8.747a.392.392 0 00-.389-.389h-1.953a.392.392 0 00-.388.389v10.916c0 .212.177.389.388.389h6.283a.392.392 0 00.388-.39v-1.768c0-.224-.177-.4-.388-.4m6.376-9.325c-3.435 0-6.141 2.664-6.141 6.06 0 3.382 2.694 6.035 6.141 6.035s6.153-2.653 6.153-6.036c0-3.395-2.706-6.059-6.153-6.059m0 9.549c-1.953 0-3.435-1.497-3.435-3.49 0-2.004 1.482-3.512 3.435-3.512 1.93 0 3.435 1.544 3.435 3.512 0 1.993-1.482 3.49-3.435 3.49"/></svg>