<svg height="89" width="96" xmlns="http://www.w3.org/2000/svg"><path d="M50.998 43.606v-.298c-.069.102-.142.2-.217.298z"/><path d="M89.987 82.9H6.01V12.95h8.998v2.998a3.002 3.002 0 002.998 3.002h8.998A3 3 0 0030 15.948V12.95h35.996v2.998a3 3 0 002.996 3.002h8.998a3 3 0 002.997-3.002V12.95h8.998V82.9zM21.007 6.952h3.005v5.998h-3.006zm50.985 0h3.004v5.998h-3.004zm20.995 0H80.99v-3A3 3 0 0077.992.95h-8.998a2.999 2.999 0 00-2.996 3.002V6.95H30V3.952A2.998 2.998 0 0027.004.95h-8.998a3 3 0 00-2.998 3.002V6.95H3.01A3 3 0 00.015 9.948v75.95a3 3 0 002.995 3h89.975a3 3 0 002.996-3V9.95a2.996 2.996 0 00-2.993-2.998z"/><path d="M27.002 43.606h-5.996v-6.002h5.996zm3.002-12H18.006a3 3 0 00-2.998 2.998V46.6a2.996 2.996 0 002.998 2.998h11.998c1.658 0 3-1.338 3-2.998V34.604a2.996 2.996 0 00-3-2.998zm44.99 12h-5.998v-6.002h5.998zm2.998-12H65.994a3 3 0 00-2.996 2.998V46.6a2.995 2.995 0 002.996 2.998h11.998a3 3 0 003.004-2.998V34.604a3.004 3.004 0 00-3.004-2.998zm-50.99 35.99h-5.996v-5.994h5.996zm3.002-11.998H18.006a3.003 3.003 0 00-2.998 3.006v11.992a3 3 0 002.998 3h11.998c1.658 0 3-1.342 3-3V58.604a3 3 0 00-3-3.006zm20.994 11.998h-6v-5.994h6zM54 55.598H42a3.001 3.001 0 00-2.996 3.006v11.992c0 1.66 1.342 3 2.996 3h12a2.996 2.996 0 002.996-3V58.604A3 3 0 0054 55.598zm20.994 11.998h-5.998v-5.994h5.998zm2.998-11.998H65.994a3.003 3.003 0 00-2.996 3.006v11.992c0 1.66 1.346 3 2.996 3h11.998a3.003 3.003 0 003.004-3V58.604c0-1.66-1.35-3.006-3.004-3.006zM50.998 43.606h-.217c.073-.098.15-.191.217-.298zm-5.994 0v-.248l.213.248zm13.509-25.285a3.64 3.64 0 00-4.821 1.79l-5.267 11.495h-4.027l-5.752-6.591a3.63 3.63 0 00-5.13-.35 3.633 3.633 0 00-.35 5.129l5.836 6.687v10.123A2.996 2.996 0 0042 49.602h12a2.998 2.998 0 002.996-2.998v-12c0-.86-.367-1.631-.952-2.177l4.254-9.285a3.626 3.626 0 00-1.786-4.821z"/></svg>