<svg height="43" width="44" xmlns="http://www.w3.org/2000/svg"><path d="M40.173 39.61H3.827V18.686h.714l17.473 11.761 17.448-11.761h.711zM13.081 16.878h17.834a.587.587 0 110 1.173H13.081a.589.589 0 01-.59-.586.59.59 0 01.59-.587zm0-4.854h17.834a.588.588 0 110 1.174H13.081a.591.591 0 01-.59-.587.59.59 0 01.59-.587zm0-4.742h8.155a.59.59 0 01.592.587.591.591 0 01-.592.588h-8.155a.59.59 0 01-.59-.588.59.59 0 01.59-.587zm28.559 8.471h-4.097V6.509L30.998.061H6.453v15.692H2.356c-.812 0-1.463.658-1.463 1.47v23.856a1.46 1.46 0 001.463 1.465H41.64c.811 0 1.467-.653 1.467-1.465V17.223a1.47 1.47 0 00-1.467-1.47z"/></svg>