<svg height="35" width="44" xmlns="http://www.w3.org/2000/svg"><path d="M27.539 9.583v3.793c0 .324.184.625.475.772a.852.852 0 00.398.098.877.877 0 00.51-.166l8.016-5.823a.87.87 0 000-1.411l-8.016-5.821a.88.88 0 00-.908-.074.875.875 0 00-.475.778v3.789H9.893c-4.963 0-9 4.038-9 9.002v6.784a2.032 2.032 0 104.064 0V14.52a4.943 4.943 0 014.936-4.937zm13.535 2.905a2.032 2.032 0 00-2.033 2.031v6.784a4.943 4.943 0 01-4.938 4.939H16.375v-3.794a.877.877 0 00-.477-.778.878.878 0 00-.906.073l-8.018 5.822a.87.87 0 000 1.409l8.018 5.825a.865.865 0 00.907.072.874.874 0 00.477-.777v-3.79h17.729c4.965 0 9.004-4.038 9.004-9.002V14.52a2.036 2.036 0 00-2.035-2.032"/></svg>