<svg height="43" width="44" xmlns="http://www.w3.org/2000/svg"><path d="M32.045 21.835a.922.922 0 01-.609.492l-14.585 4.215c-.289.09-.588.065-.895-.074-.309-.142-.525-.4-.66-.779-.122-.391-.122-.721.008-.995a.98.98 0 01.627-.542l14.62-4.183c.266-.089.552-.062.854.085.299.144.515.416.647.818.138.379.134.701-.007.963m-4.18 8.395a2.894 2.894 0 01-.695 1.08l-1.102 1.103a2.818 2.818 0 01-2.285.846 3.474 3.474 0 01-1.213-.364 4.274 4.274 0 01-1.119-.818 4.337 4.337 0 01-.822-1.12c-.199-.4-.323-.81-.365-1.22a2.672 2.672 0 01.142-1.213c.14-.395.371-.754.694-1.078l1.103-1.104a2.868 2.868 0 011.081-.695 2.71 2.71 0 011.212-.142c.411.044.817.166 1.221.368.402.201.775.473 1.12.82.349.343.62.719.819 1.119.201.401.322.805.359 1.213.041.408-.011.811-.15 1.205M12.88 12.522a3.995 3.995 0 01-.745.58c-.082.049-.165.09-.249.133a3.842 3.842 0 01-.602.253c-.091.029-.183.062-.273.081a3.823 3.823 0 01-.818.121c-.033.002-.066.01-.102.01a4.284 4.284 0 01-.913-.105c-.087-.019-.166-.048-.251-.075a3.986 3.986 0 01-.65-.255c-.086-.042-.169-.081-.252-.131a4.196 4.196 0 01-.776-.584 3.985 3.985 0 01-.027-5.633 4.06 4.06 0 01.75-.58c.08-.051.163-.087.244-.133.197-.1.398-.188.606-.254.091-.03.179-.06.273-.082.269-.066.542-.108.816-.117.035-.002.068-.01.1-.012.307-.002.613.039.917.105.083.023.166.051.247.075a4 4 0 01.659.258c.078.044.161.079.244.128.275.162.541.35.775.587a3.977 3.977 0 01.027 5.63m6.666 3.868c.131-.402.361-.764.685-1.087l1.104-1.104a2.742 2.742 0 011.085-.686c.4-.135.81-.178 1.223-.135.412.047.819.167 1.218.368.402.202.778.474 1.121.821.336.332.604.701.807 1.104.199.402.322.808.365 1.221.044.412-.002.816-.141 1.213-.142.396-.37.755-.695 1.079l-1.104 1.103a2.858 2.858 0 01-1.075.694 2.78 2.78 0 01-1.214.144 3.602 3.602 0 01-1.222-.368 4.316 4.316 0 01-1.106-.806 4.366 4.366 0 01-.817-1.117 3.552 3.552 0 01-.367-1.223 2.805 2.805 0 01.133-1.221m23.155 5.996L21.055.944a1.599 1.599 0 00-1.121-.458l-1.148.005-16.38.078a1.659 1.659 0 00-.421.059c-.046.015-.083.037-.122.052a.76.76 0 00-.118.051c-.169.08-.326.176-.458.309A1.565 1.565 0 00.83 2.161l.083 17.527c.006.418.172.82.471 1.117l21.646 21.44c.139.135.301.232.469.306a1.512 1.512 0 00.625.148c.014 0 .022.004.03.004.14-.002.282-.021.415-.059.038-.01.075-.033.112-.047a.749.749 0 00.118-.051c.169-.076.327-.174.467-.311l17.442-17.612a1.579 1.579 0 00-.007-2.237"/><path d="M24.611 27.662c-.323-.022-.612.094-.869.352l-.972.97c-.255.258-.375.547-.351.871s.158.606.404.854c.232.232.513.363.843.393.33.027.621-.087.878-.345l.972-.97c.255-.256.371-.549.341-.877a1.305 1.305 0 00-.392-.844 1.301 1.301 0 00-.854-.404m-1.805-8.696c.324.021.612-.094.87-.352l.971-.971c.256-.258.372-.546.351-.87a1.273 1.273 0 00-.386-.835 1.332 1.332 0 00-.869-.42c-.324-.021-.612.096-.87.354l-.971.97c-.256.256-.374.544-.351.868.023.322.163.615.417.871.237.232.516.361.838.385"/></svg>