<svg height="50" width="50" xmlns="http://www.w3.org/2000/svg"><clipPath id="a"><path d="M4.488 5h41.023v40H4.488z"/></clipPath><path clip-path="url(#a)" d="M36.564 21.797l-9.836 11.791a3.518 3.518 0 01-2.705 1.254 3.526 3.526 0 01-2.055-.662l-7.896-5.677a3.332 3.332 0 01-.736-4.74c1.141-1.508 3.316-1.824 4.859-.715l5.229 3.754 7.748-9.283c1.211-1.453 3.396-1.674 4.891-.49a3.333 3.333 0 01.501 4.768M25.006 5C13.691 5 4.488 13.972 4.488 25c0 11.03 9.203 20 20.518 20 11.309 0 20.512-8.97 20.512-20 0-11.028-9.204-20-20.512-20" fill="#85694e"/></svg>