<svg xmlns="http://www.w3.org/2000/svg" viewBox="0 0 60 60"><path d="M55.783 8H4.217A4.222 4.222 0 000 12.217V13h60v-.783A4.222 4.222 0 0055.783 8z"/><circle cx="24" cy="18" r="1"/><circle cx="27" cy="15" r="1"/><circle cx="27" cy="21" r="1"/><circle cx="30" cy="18" r="1"/><circle cx="18" cy="18" r="1"/><circle cx="21" cy="15" r="1"/><circle cx="21" cy="21" r="1"/><circle cx="3" cy="15" r="1"/><circle cx="3" cy="21" r="1"/><circle cx="6" cy="18" r="1"/><circle cx="12" cy="18" r="1"/><circle cx="9" cy="15" r="1"/><circle cx="15" cy="15" r="1"/><circle cx="9" cy="21" r="1"/><circle cx="15" cy="21" r="1"/><circle cx="54" cy="18" r="1"/><circle cx="57" cy="15" r="1"/><circle cx="57" cy="21" r="1"/><circle cx="48" cy="18" r="1"/><circle cx="51" cy="15" r="1"/><circle cx="51" cy="21" r="1"/><circle cx="33" cy="15" r="1"/><circle cx="33" cy="21" r="1"/><circle cx="36" cy="18" r="1"/><circle cx="42" cy="18" r="1"/><circle cx="39" cy="15" r="1"/><circle cx="45" cy="15" r="1"/><circle cx="39" cy="21" r="1"/><circle cx="45" cy="21" r="1"/><path d="M38 36h14v8H38z"/><path d="M0 47.783A4.222 4.222 0 004.217 52h51.566A4.222 4.222 0 0060 47.783V23H0v24.783zM14 34h-2a1 1 0 110-2h2a1 1 0 110 2zm11 0h-2a1 1 0 110-2h2a1 1 0 110 2zm4.71-.29c-.19.18-.45.29-.71.29-.271 0-.521-.11-.71-.29-.181-.19-.29-.45-.29-.71 0-.26.109-.52.29-.71.37-.37 1.05-.37 1.42 0 .18.19.29.45.29.71 0 .26-.11.52-.29.71zM36 34h18v12H36V34zm-16-7h9a1 1 0 110 2h-9a1 1 0 110-2zm-2 5h1a1 1 0 110 2h-1a1 1 0 110-2zM7 27h9a1 1 0 110 2H7a1 1 0 110-2zm0 5h1a1 1 0 110 2H7a1 1 0 110-2z"/></svg>