<svg width="21" height="21" fill="none" xmlns="http://www.w3.org/2000/svg"><path d="M13.12 12.71a3.303 3.303 0 001.005-2.424 3.3 3.3 0 00-1.005-2.424 3.303 3.303 0 00-2.424-1.005c-.946 0-1.754.335-2.424 1.005a3.303 3.303 0 00-1.004 2.424c0 .946.335 1.754 1.004 2.424a3.303 3.303 0 002.424 1.004c.947 0 1.755-.335 2.425-1.004zm1.313-6.16c1.027 1.026 1.54 2.271 1.54 3.736 0 1.464-.513 2.71-1.54 3.736-1.027 1.027-2.272 1.54-3.737 1.54-1.464 0-2.71-.513-3.736-1.54-1.027-1.027-1.54-2.272-1.54-3.736 0-1.465.513-2.71 1.54-3.737 1.027-1.027 2.272-1.54 3.736-1.54 1.465 0 2.71.513 3.737 1.54zm2.625-2.626c.241.241.362.531.362.87 0 .34-.121.63-.362.871a1.187 1.187 0 01-.87.362c-.34 0-.63-.12-.871-.362a1.187 1.187 0 01-.362-.87c0-.34.12-.63.362-.87.241-.242.531-.362.87-.362.34 0 .63.12.871.361zm-5.344-2.076H9.666a36 36 0 00-1.407 0c-.322 0-.755.014-1.3.04a9.372 9.372 0 00-1.379.134 5.06 5.06 0 00-.95.241 3.493 3.493 0 00-1.956 1.956c-.098.259-.183.58-.254.964a12.24 12.24 0 00-.134 1.38c-.018.535-.032.964-.04 1.285v1.42l.013 1.018-.014 1.031v1.406l.04 1.3c.027.535.072.995.135 1.379.071.375.156.692.254.95a3.493 3.493 0 001.955 1.956c.26.098.576.183.951.255.384.062.844.107 1.38.133.544.018.977.032 1.299.04h1.406l1.031-.013 1.018.014h1.42l1.286-.04a12.242 12.242 0 001.379-.134c.384-.072.705-.157.964-.255.447-.178.84-.438 1.179-.777a3.47 3.47 0 00.777-1.178 5.06 5.06 0 00.24-.951c.072-.384.117-.844.135-1.38.026-.544.04-.977.04-1.299.009-.321.009-.79 0-1.406V9.268c.009-.625.009-1.098 0-1.42 0-.321-.014-.75-.04-1.285a9.135 9.135 0 00-.134-1.38 5.046 5.046 0 00-.241-.964 3.475 3.475 0 00-.777-1.179 3.474 3.474 0 00-1.179-.777 5.044 5.044 0 00-.964-.24 9.126 9.126 0 00-1.38-.135 28.06 28.06 0 00-1.285-.04 36.654 36.654 0 00-1.42 0zm9.201 4.192c.045.786.067 2.201.067 4.246 0 2.044-.022 3.46-.067 4.245-.09 1.857-.643 3.295-1.66 4.313-1.018 1.018-2.456 1.571-4.313 1.66-.786.045-2.201.067-4.246.067-2.044 0-3.46-.022-4.245-.067-1.857-.089-3.295-.642-4.313-1.66C1.12 17.826.567 16.388.478 14.53c-.045-.786-.067-2.2-.067-4.245s.022-3.46.067-4.246c.089-1.857.642-3.294 1.66-4.312C3.156.71 4.594.156 6.451.067 7.237.022 8.65 0 10.696 0s3.46.022 4.246.067c1.857.09 3.294.643 4.312 1.66 1.018 1.019 1.572 2.456 1.661 4.313z" fill="#fff"/></svg>