<svg width="31" height="37" fill="none" xmlns="http://www.w3.org/2000/svg"><path d="M6.2 0c3.153 0 4.73 3.996 2.515 6.327C6.483 8.64 2.657 6.993 2.657 3.7c0-.981.373-1.922 1.038-2.616A3.468 3.468 0 016.2 0zM3.543 9.25h5.314c.94 0 1.84.39 2.505 1.084A3.785 3.785 0 0112.4 12.95v10.175H9.743V37H2.657V23.125H0V12.95c0-.981.373-1.922 1.038-2.616A3.468 3.468 0 013.543 9.25zM31 11.1H20.371v3.7H31v-3.7zm0 5.55h-5.314v3.7H31v-3.7zM31 0H20.371v3.7H31V0zm0 5.55h-5.314v3.7H31v-3.7zm0 16.65H20.371v3.7H31v-3.7zm0 11.1H20.371V37H31v-3.7zm0-5.55h-5.314v3.7H31" fill="#CED4D7"/></svg>