<svg width="26" height="36" fill="none" xmlns="http://www.w3.org/2000/svg"><path d="M25.408 25.832c0 3.04-1.12 5.408-3.36 7.104-2.24 1.696-5.216 2.544-8.928 2.544-3.68 0-6.672-.8-8.976-2.4-2.272-1.6-3.648-4.112-4.128-7.536l5.76-1.104c.224 2.016.96 3.568 2.208 4.656 1.248 1.088 2.944 1.632 5.088 1.632 1.984 0 3.52-.464 4.608-1.392 1.12-.928 1.68-2.224 1.68-3.888 0-1.568-.528-2.784-1.584-3.648-1.024-.896-2.496-1.344-4.416-1.344H9.808v-4.8h3.504c1.728 0 3.088-.448 4.08-1.344.992-.896 1.488-2.112 1.488-3.648 0-1.6-.512-2.816-1.536-3.648-1.024-.864-2.496-1.296-4.416-1.296-1.888 0-3.424.528-4.608 1.584-1.184 1.024-1.904 2.512-2.16 4.464l-5.52-1.2c.48-3.04 1.84-5.408 4.08-7.104C6.96 1.768 9.792.92 13.216.92c3.488 0 6.288.784 8.4 2.352 2.112 1.536 3.168 3.696 3.168 6.48 0 1.92-.496 3.568-1.488 4.944-.96 1.344-2.336 2.352-4.128 3.024 1.984.608 3.52 1.584 4.608 2.928 1.088 1.312 1.632 3.04 1.632 5.184z" fill="#000"/></svg>