<svg width="39" height="27" fill="none" xmlns="http://www.w3.org/2000/svg"><path d="M28.382 12.421l-6.57-10.816L20.839 0 19.77 1.547 16.1 6.86l-5.131 3.51-.266.181-.14.29-2.554 5.274-2.638 1.303L0 25.054V27h39v-2.614l-4.076-6.827-6.542-5.138zM6.19 18.364l2.734-1.35 2.127 5.228-4.861-3.878zm10.734 5.242l.911-5.457-6.784-1.363 7.595-2.427-1.671-6.63 3.797-5.499-1.013 4.554 2.735 3.637-3.342-.152 4.86 3.44-3.644 2.32-3.444 7.577zm12.962-2.837L22.9 23.606l4.861-3.79 3.365-3.701 2.863 2.249-4.102 2.405z" fill="#CED4D7"/></svg>