<svg width="25" height="35" fill="none" xmlns="http://www.w3.org/2000/svg"><path d="M.976 30.104l11.712-10.128c1.44-1.248 2.56-2.352 3.36-3.312.8-.992 1.36-1.936 1.68-2.832.32-.896.48-1.824.48-2.784 0-1.6-.512-2.864-1.536-3.792-.992-.928-2.384-1.392-4.176-1.392-1.984 0-3.552.576-4.704 1.728-1.152 1.12-1.776 2.784-1.872 4.992l-5.76-.912C.416 8.344 1.648 5.72 3.856 3.8S8.976.92 12.592.92c2.4 0 4.48.416 6.24 1.248 1.76.832 3.12 2 4.08 3.504s1.44 3.28 1.44 5.328c0 1.472-.256 2.864-.768 4.176-.48 1.312-1.296 2.656-2.448 4.032-1.152 1.344-2.752 2.864-4.8 4.56l-7.392 6.336h16.032V35h-24v-4.896z" fill="#000"/></svg>