<svg version="1.1" id="Capa_1" xmlns="http://www.w3.org/2000/svg" x="0" y="0" viewBox="0 0 195.957 195.959" xml:space="preserve"><path d="M50.462 92.463c-2.924 2.924-2.924 7.683 0 10.608l28.284 28.284a7.455 7.455 0 005.303 2.196c2.003 0 3.887-.78 5.304-2.197l56.142-56.142c1.416-1.417 2.196-3.3 2.196-5.303s-.78-3.887-2.196-5.304c-2.924-2.922-7.683-2.923-10.608.001L84.05 115.444 61.07 92.463c-2.926-2.923-7.683-2.923-10.608 0z"/><path d="M137.847 8.455c-3.779-1.684-8.221.019-9.904 3.795a7.445 7.445 0 00-.153 5.738 7.451 7.451 0 003.949 4.167c29.898 13.334 49.218 43.098 49.218 75.825 0 45.755-37.224 82.979-82.979 82.979S14.999 143.735 14.999 97.98c0-32.559 19.18-62.26 48.864-75.667a7.452 7.452 0 003.929-4.185 7.448 7.448 0 00-.181-5.737 7.456 7.456 0 00-4.186-3.93 7.497 7.497 0 00-2.654-.488c-1.05 0-2.096.223-3.081.668C22.645 24.471 0 59.538 0 97.979c0 26.128 10.203 50.722 28.73 69.249s43.12 28.731 69.248 28.731c54.025 0 97.979-43.953 97.979-97.979 0-38.642-22.81-73.782-58.11-89.525z"/><path d="M97.978 15h.264c4.164 0 7.528-3.349 7.546-7.465a7.445 7.445 0 00-2.172-5.313A7.451 7.451 0 0098.324 0h-.346c-4.136 0-7.5 3.364-7.5 7.5s3.364 7.5 7.5 7.5z"/></svg>